<svg width="70" height="70" fill="none" xmlns="http://www.w3.org/2000/svg"><g clip-path="url(#a)"><g filter="url(#b)"><path d="M67.3163 48.3385 48.8468 29.7337l2.0498-10.0964c.529.2065 1.0913.3144 1.659.3185h.014c2.6081.0308 4.7473-2.0584 4.7783-4.6665.0309-2.6081-2.0585-4.7473-4.6666-4.7782-2.6081-.0308-4.7473 2.0584-4.7782 4.6665a4.7191 4.7191 0 0 0 .2729 1.6387l-10.85 1.3242L19.6276.35A1.16637 1.16637 0 0 0 18.804 0a1.16654 1.16654 0 0 0-.8167.3395l-3.3087 3.29c-.4554.45558-.4554 1.19408 0 1.64967l1.7804 1.806C9.56162 19.7681 11.8019 35.4741 21.9703 45.7228c.0933.0893.2015.1615.3197.2135a6.7707 6.7707 0 0 0-.1144 1.197v13.5334H8.17562c-3.22.0038-5.82954 2.6133-5.83333 5.8333v2.3333c0 .6443.52237 1.1667 1.16666 1.1667H57.1756c.6443 0 1.1667-.5224 1.1667-1.1667V66.5c-.0038-3.22-2.6133-5.8295-5.8333-5.8333h-14v-5.9979c2.1931.46 4.4277.6945 6.6686.7a32.48312 32.48312 0 0 0 15.4-3.9013l1.7897 1.8002c.2171.2215.5135.3475.8237.35a1.1668 1.1668 0 0 0 .8166-.3395l3.3087-3.29c.4554-.4556.4554-1.1941 0-1.6497ZM50.9246 13.6348c.9137-.9088 2.3911-.9047 3.2998.0089.9088.9137.9047 2.3911-.0089 3.2998a2.33352 2.33352 0 0 1-1.646.679h-.007c-1.2886-.0067-2.328-1.0567-2.3213-2.3454a2.33413 2.33413 0 0 1 .6879-1.6423h-.0045Zm-2.7463 7.6662-1.309 6.4435-2.5713-2.5865 3.8803-3.857Zm-1.3253-1.9728-4.2 4.1755-3.2492-3.2667 7.4492-.9088ZM52.509 63c1.933 0 3.5 1.567 3.5 3.5v1.1667H4.67562V66.5c0-1.933 1.56698-3.5 3.5-3.5H52.509Zm-16.3334-4.6667v2.3334H24.509v-2.3334h11.6666ZM24.509 56v-8.8667C24.509 44.303 27.1258 42 30.3423 42c3.2165 0 5.8333 2.303 5.8333 5.1333V56H24.509Zm14-3.71v-5.1567c0-4.1171-3.6634-7.4666-8.1667-7.4666-2.9117-.0447-5.6344 1.4374-7.1773 3.9071-8.8763-9.3489-10.8751-23.2863-4.9845-34.75307L58.872 49.7455c-6.2834 3.1964-13.4863 4.0963-20.363 2.5445Zm24.6948-1.4957L61.56 49.1412 18.7923 6.11567l-1.6508-1.65434 1.6508-1.645L36.15 20.272c.0081 0 .0128.0152.021.021l28.6883 28.8563-1.6555 1.645Z" fill="#212121"/><path d="m66.9614 48.6908.0013.0012c.2602.2603.2602.6823 0 .9427l-3.3076 3.2889-.0001.0001a.6663.6663 0 0 1-.4633.1939.66567.66567 0 0 1-.4673-.2l-.0025-.0025-1.7897-1.8001-.2634-.265-.3288.1776a31.9837 31.9837 0 0 1-15.1617 3.8412 32.3881 32.3881 0 0 1-6.5667-.6893l-.6026-.1264v7.1136h14.4994c2.9443.0034 5.3304 2.3896 5.3339 5.3339v2.3327c0 .3682-.2985.6667-.6667.6667H3.50895c-.36815 0-.66666-.2985-.66666-.6667v-2.333c.00362-2.9442 2.3897-5.3302 5.33392-5.3336H22.6756V47.1349c.0024-.3713.0379-.7418.1059-1.107l.0725-.3894-.3624-.1597a.61187.61187 0 0 1-.1716-.1134C12.3116 35.2733 10.1076 19.8108 16.8982 7.32404l.1772-.32579-.2604-.2641-1.7803-1.806v-.00001l-.0025-.00247c-.26-.26015-.2602-.68176-.0005-.94213.0002-.00018.0003-.00036.0005-.00054L18.3398.69405 18.3399.694a.66649.66649 0 0 1 .4634-.19398.66603.66603 0 0 1 .4672.2l.0026.00261L36.9715 18.4931l.1724.1733.2426-.0296 10.85-1.3242.6198-.0756-.2093-.5883a4.22078 4.22078 0 0 1-.2439-1.4652c.0276-2.3319 1.9404-4.2 4.2723-4.1725 2.332.0277 4.2001 1.9405 4.1725 4.2724-.0277 2.332-1.9404 4.2-4.2724 4.1725v-.0001h-.0181a4.15214 4.15214 0 0 1-1.4789-.2842l-.5536-.2162-.1183.5824-2.0498 10.0964-.0532.262.1883.1897 18.4695 18.6049ZM50.5743 13.2826a2.83299 2.83299 0 0 0-.8331 1.9919c-.0081 1.5649 1.254 2.8398 2.8187 2.848h.0096a2.83338 2.83338 0 0 0 1.9986-.8245c1.1094-1.1034 1.1144-2.8974.0108-4.0069-1.1034-1.1094-2.8975-1.1144-4.0069-.0108l.0023.0023Zm-1.906 8.1179.3287-1.6183-1.1712 1.1642-3.8803 3.857-.3547.3525.3526.3546 2.5713 2.5865.6586.6625.186-.9155 1.309-6.4435Zm-1.4628-1.7177 1.0334-1.0274-1.4465.1764-7.4492.9089-1.0151.1238.7212.7251 3.2492 3.2667.3525.3544.3545-.3524 4.2-4.1755Zm8.8035 48.4839h.5V66.5c0-2.2092-1.7909-4-4-4H8.17562c-2.20916 0-4 1.7908-4 4v1.6667H56.009Zm-19.3334-9.8334v-.5H24.009v3.3334h12.6666v-2.8334ZM24.009 56v.5h12.6666v-9.3667c0-3.1646-2.9026-5.6333-6.3333-5.6333-3.4307 0-6.3333 2.4687-6.3333 5.6333V56Zm14-3.71v.3997l.3899.088c6.9905 1.5775 14.3125.6627 20.6998-2.5865l.6119-.3114-.4841-.4868L18.5351 8.46819l-.485-.48778-.3143.61185C11.748 20.248 13.7798 34.4151 22.8024 43.9181l.4445.4682.3421-.5475c1.4501-2.3212 4.009-3.7141 6.7456-3.6722v.0001h.0077c4.2703 0 7.6667 3.1668 7.6667 6.9666V52.29Zm24.8402-1.1431.3525.3544.3545-.3523 1.6555-1.645.3548-.3525-.3526-.3547L36.543 19.958c-.0139-.0166-.033-.0376-.0565-.0584-.0035-.003-.0072-.0062-.0111-.0095L19.1468 2.46378l-.3529-.35492-.3545.35329-1.6509 1.645-.3544.35318.3534.35418 1.6502 1.65365.0007.00069L61.2053 49.4937h.0001l1.6438 1.6532Z" stroke="#000"/></g><path d="M30.3528 44.3333h-.0105c-1.933-.0029-3.5023 1.5617-3.5053 3.4948-.0029 1.933 1.5618 3.5023 3.4948 3.5052h.0105c1.933.0029 3.5023-1.5617 3.5052-3.4947.003-1.9331-1.5617-3.5024-3.4947-3.5053Zm.8167 4.3272a1.1671 1.1671 0 0 1-.8272.3395c-.6443-.0034-1.1639-.5284-1.1606-1.1727.0017-.3084.1253-.6036.3439-.8211.2172-.216.5104-.3379.8167-.3395.6443.0033 1.1639.5283 1.1605 1.1726a1.16721 1.16721 0 0 1-.3438.8212h.0105Z" fill="#2196F3"/></g><defs><clipPath id="a"><path fill="#fff" d="M0 0h70v70H0z"/></clipPath><filter id="b" x="-1.65771" y="0" width="73.3156" height="78" filterUnits="userSpaceOnUse" color-interpolation-filters="sRGB"><feFlood flood-opacity="0" result="BackgroundImageFix"/><feColorMatrix in="SourceAlpha" values="0 0 0 0 0 0 0 0 0 0 0 0 0 0 0 0 0 0 127 0" result="hardAlpha"/><feOffset dy="4"/><feGaussianBlur stdDeviation="2"/><feComposite in2="hardAlpha" operator="out"/><feColorMatrix values="0 0 0 0 0 0 0 0 0 0 0 0 0 0 0 0 0 0 0.25 0"/><feBlend in2="BackgroundImageFix" result="effect1_dropShadow_1_333"/><feBlend in="SourceGraphic" in2="effect1_dropShadow_1_333" result="shape"/></filter></defs></svg>