<svg width="70" height="70" fill="none" xmlns="http://www.w3.org/2000/svg"><path d="m70 10-1-1-4-1-2-3h-2l-2 3-4 1a1 1 0 0 0-1 2l3 3-1 4a1 1 0 0 0 2 1l4-2 4 2a1 1 0 0 0 1-1v-4l3-3v-1Zm-5 3-1 1 1 2-3-1a1 1 0 0 0-1 0l-2 1 1-2-1-1-2-2h3l1-1 1-2 1 2 1 1h2l-1 2ZM57 45h-2v2h2v-2ZM57 50h-2v2h2v-2ZM60 47h-3v3h3v-3ZM55 47h-2v3h2v-3ZM49 58h-2v2h2v-2ZM49 62h-2v3h2v-3ZM51 60h-2v2h2v-2ZM47 60h-3v2h3v-2ZM35 53h-2v2h2v-2ZM35 58h-2v2h2v-2ZM37 55h-2v3h2v-3ZM33 55h-3v3h3v-3ZM13 13h-3v3h3v-3ZM13 18h-3v2h3v-2ZM15 16h-2v2h2v-2ZM10 16H8v2h2v-2Z" fill="#2196F3"/><path d="m54 31-3-2-2 1-3 2-4 3-3-1a15 15 0 0 0-7-29 15 15 0 0 0-12 24h-7l-7 3-4 2a4 4 0 0 0 4 7l3-2 5-2h3L5 49l-3 3a4 4 0 0 0 0 5 4 4 0 0 0 5 0l3-3 4-3 2 2-4 4-3 3a4 4 0 0 0 0 5 4 4 0 0 0 5 0l3-3 5-5 2-2 11-12 8 1h1l7-5 3-3v-5ZM5 39H3a2 2 0 0 1 0-3l3-1 1 2v1l-2 1Zm7-4-3 2-1-2v-1l4-2v3Zm33-15-1 6-9-4-2-3 3-11c6 2 9 7 9 12Zm-25 0A13 13 0 0 1 34 8l-3 10c-2 0-4 2-4 4a4 4 0 0 0 7 2l9 4a13 13 0 0 1-23-8Zm13 2-2 2-2-2 2-2 2 2ZM5 55H4a1 1 0 0 1 0-2l2-2 1 2-2 2Zm7 8h-1a1 1 0 0 1 0-2l2-2 1 1 1 1-3 2Zm8-7-4 3h-1l-1-1 4-4v-1h1-1v-1l-3-3-1-1h-1l-4 3-2-2 6-5 9 10-2 2Zm15-16a1 1 0 0 0-1 1L24 52l-10-9 6-7a1 1 0 0 0 0-2h-5v-3h7a15 15 0 0 0 13 4h1l5 3v1l1 2-7-1Zm9 1-1-4 3-2 1 1 1 2-4 3Zm8-7-2 2-2-3 2-1h1a2 2 0 0 1 1 2Z" fill="#212121"/><path d="m30 41-5-5h-2l-4 5a1 1 0 0 0 0 1l4 5a1 1 0 0 0 2 0l5-5a1 1 0 0 0 0-1Zm-6 3-3-3 3-3 3 3-3 3ZM38 11l-1 2s4 1 4 5h2c0-4-4-6-5-7ZM43 20h-2v3h2v-3Z" fill="#212121"/></svg>